HIERARCHY
ROOT Hips
{
  OFFSET 113.357 94.8219 250.803
  CHANNELS 6 Xposition Yposition Zposition Zrotation Xrotation Yrotation
  JOINT RightUpLeg
  {
    OFFSET -8.9458 -8.66707 0.101652
    CHANNELS 3 Zrotation Xrotation Yrotation
    JOINT RightLeg
    {
      OFFSET 0 -44.4227 1.3727
      CHANNELS 3 Zrotation Xrotation Yrotation
      JOINT RightFoot
      {
        OFFSET 0.253549 -42.0924 -1.46059
        CHANNELS 3 Zrotation Xrotation Yrotation
        JOINT RightToes
        {
          OFFSET 0.04 -4.41509 8.4991
          CHANNELS 3 Zrotation Xrotation Yrotation
          End Site
          {
            OFFSET -0.08 -0.137448 9.77979
          }
        }
      }
    }
  }
  JOINT Spine
  {
    OFFSET 0 11.8905 0
    CHANNELS 3 Zrotation Xrotation Yrotation
    JOINT Spine1
    {
      OFFSET 0 25.6574 0.127663
      CHANNELS 3 Zrotation Xrotation Yrotation
      JOINT HEad
      {
        OFFSET 0 8.73416 0.011341
        CHANNELS 3 Zrotation Xrotation Yrotation
        End Site
        {
          OFFSET -0.29 12.7742 2.51395
        }
      }
      JOINT LeftShoulder1
      {
        OFFSET 8.99 -0.362252 -0.22
        CHANNELS 3 Zrotation Xrotation Yrotation
        JOINT LeftArm
        {
          OFFSET 10.2827 -0.00338 0.322123
          CHANNELS 3 Zrotation Xrotation Yrotation
          JOINT LeftForeArm
          {
            OFFSET 32.7669 0.099144 -1.42434
            CHANNELS 3 Zrotation Xrotation Yrotation
            JOINT LeftHand
            {
              OFFSET 27.5643 0.085362 1.02216
              CHANNELS 3 Zrotation Xrotation Yrotation
              End Site
              {
                OFFSET 16.7443 -0.6 1.50291
              }
            }
          }
        }
      }
      JOINT RightShoulder
      {
        OFFSET -8.99 -0.362252 -0.22
        CHANNELS 3 Zrotation Xrotation Yrotation
        JOINT RightArm
        {
          OFFSET -10.2827 -0.00338 0.322123
          CHANNELS 3 Zrotation Xrotation Yrotation
          JOINT RightForeArm
          {
            OFFSET -32.8971 0.099144 -1.42434
            CHANNELS 3 Zrotation Xrotation Yrotation
            JOINT RightHand
            {
              OFFSET -27.4921 0.085362 1.02216
              CHANNELS 3 Zrotation Xrotation Yrotation
              End Site
              {
                OFFSET -16.6312 -0.6 1.50291
              }
            }
          }
        }
      }
    }
  }
  JOINT LeftUpLeg
  {
    OFFSET 8.9458 -8.66707 0.101652
    CHANNELS 3 Zrotation Xrotation Yrotation
    JOINT LeftLeg
    {
      OFFSET 0 -44.4227 1.3727
      CHANNELS 3 Zrotation Xrotation Yrotation
      JOINT LeftFoot
      {
        OFFSET -0.253549 -42.0924 -1.46059
        CHANNELS 3 Zrotation Xrotation Yrotation
        JOINT LeftToes
        {
          OFFSET -0.04 -4.41509 8.4991
          CHANNELS 3 Zrotation Xrotation Yrotation
          End Site
          {
            OFFSET 0.08 -0.047448 9.77979
          }
        }
      }
    }
  }
}
MOTION
Frames:	14
Frame Time:	0.0166667
117.229 98.0205 -6.52788 4.92268 3.49285 -169.04 9.46957 -13.6692 14.0021 7.18113 20.7032 -28.4705 10.1681 -8.69316 0.124396 1.71032 4.62094 -0.495739 3.3211 6.94596 0.880588 12.7334 -2.96975 -0.10525 -7.57542 1.87836 4.58373 -3.97569e-016 3.97569e-016 -1.59028e-015 -150.642 -52.1208 -70.687 15.7859 7.53567 -1.94254 0.368473 9.90896 -0.00117925 15.2842 0.470222 -1.37043 108.941 -65.8795 58.4911 -1.86063 9.24688 -3.74675 -0.369625 9.91382 0.00119887 8.84196 -10.0196 -3.00898 -1.11183 67.6498 10.6562 -3.06052 7.35626 0.318082 11.6377 6.9179 -10.509 
117.264 97.9894 -8.21895 4.76489 3.16577 -169.126 9.46214 -13.3912 13.3758 7.36868 21.7456 -27.8437 10.1851 -10.1273 0.24524 1.75007 4.38676 -0.573228 4.10061 6.53846 1.01361 12.4966 -2.10945 0.0380262 -8.03146 0.729199 4.43933 -4.96962e-016 -7.95139e-016 -3.18055e-015 -151.353 -52.3893 -71.8554 15.5897 7.58391 -1.86206 0.368473 9.90896 -0.00117925 13.4212 0.563453 -0.744425 111.788 -64.4841 60.0439 -2.29922 9.14536 -3.56846 -0.369625 9.91382 0.00119887 8.02489 -12.886 -4.4105 -4.35721 69.1928 15.1232 -2.16204 5.76071 0.201579 11.0859 6.52132 -10.0015 
117.324 97.9448 -9.89445 4.73519 2.81988 -169.257 9.71913 -13.0566 13.1661 7.38833 22.5906 -27.5715 10.3751 -11.4817 0.373832 1.72688 4.26353 -0.565921 4.88758 5.98448 1.27021 12.3711 -1.29367 0.248438 -8.56159 -0.097147 4.23483 2.18663e-015 0 1.59028e-015 -152.149 -52.537 -73.1103 15.34 7.61726 -1.76051 0.368473 9.90896 -0.00117925 11.2137 0.639796 0.0109664 114.623 -63.2703 61.2626 -2.79104 9.03959 -3.36821 -0.369625 9.91382 0.00119887 7.48361 -15.7189 -5.00884 -6.33966 70.0465 17.2091 -1.70732 3.26213 0.132944 8.85888 3.91133 -7.7116 
117.383 97.9073 -11.5792 4.72504 2.53911 -169.511 10.0467 -12.5121 13.0047 7.24908 23.2128 -27.1705 10.5305 -12.6986 0.49046 1.74034 4.09492 -0.604567 5.60583 5.40996 1.62513 12.2794 -0.416691 0.523985 -9.1096 -0.745437 3.9851 -2.98177e-015 -2.38542e-015 -1.59028e-015 -152.528 -52.6309 -73.9019 14.8486 7.74484 -1.55883 0.368473 9.90896 -0.00117925 8.93245 0.676922 0.630522 117.465 -62.0321 62.4374 -3.34156 8.91971 -3.14374 -0.369625 9.91382 0.00119887 7.05458 -18.2708 -5.15477 -7.10512 70.122 17.5617 -1.55634 0.441706 0.0827061 6.59634 0.674953 -5.15775 
117.43 97.8861 -13.3 4.71807 2.45028 -169.966 10.4426 -11.5316 12.5409 6.80362 23.5491 -26.0681 10.4606 -13.6693 0.573026 1.92386 3.69788 -0.86282 6.17878 4.95872 2.10073 12.2133 0.644733 0.90022 -9.58717 -1.3385 3.61697 2.18663e-015 0 -1.59028e-015 -151.906 -52.6467 -73.5378 13.9801 8.06617 -1.20065 0.368473 9.90896 -0.00117925 6.95033 0.620867 0.71779 120.205 -60.5574 63.8537 -3.9599 8.77301 -2.89119 -0.369625 9.91382 0.00119887 6.66784 -20.2608 -4.96193 -6.75747 69.2517 16.5696 -1.97636 -2.3084 0.0343096 5.33742 -1.92129 -3.60859 
117.472 97.8939 -15.0322 4.64108 2.42638 -170.567 10.7465 -10.3209 12.0491 6.31498 23.6175 -24.8464 10.2428 -14.5295 0.633564 2.08415 3.31752 -1.09653 6.58106 4.56485 2.6259 12.1153 1.73834 1.30685 -10.0373 -1.8051 3.29873 1.98785e-015 -1.59028e-015 -0 -150.579 -52.7415 -72.4284 12.7645 8.5137 -0.699749 0.368473 9.90896 -0.00117925 5.01147 0.529583 0.608904 122.7 -58.945 65.0128 -4.54454 8.63874 -2.65205 -0.369625 9.91382 0.00119887 6.29234 -21.8965 -4.62105 -6.1181 67.5423 15.4275 -2.23282 -4.81872 0.00287246 4.4788 -3.96196 -2.50785 
117.517 97.9574 -16.757 4.38624 2.37318 -171.336 10.706 -9.00686 11.7253 6.09567 23.3743 -24.0033 9.867 -15.5377 0.686767 2.04883 3.42981 -1.0405 6.71746 4.20792 3.15513 11.9171 2.78416 1.69582 -10.4629 -2.11846 3.20004 2.98177e-015 0 1.59028e-015 -148.416 -53.0431 -70.5469 11.0493 9.09922 0.00564714 0.368473 9.90896 -0.00117925 2.91005 0.442332 0.491118 124.798 -57.1658 65.4208 -4.9233 8.57943 -2.49697 -0.369625 9.91382 0.00119887 5.80936 -23.2941 -4.33257 -5.76443 65.0518 15.2674 -1.2738 -6.74334 0.00931654 3.81279 -4.94156 -1.7804 
117.552 98.0435 -18.4839 4.03426 2.3179 -172.117 10.531 -7.61702 11.4336 5.87748 22.9871 -23.251 9.41048 -16.2177 0.703734 1.91454 3.15926 -0.932939 6.71314 3.8958 3.63468 11.6747 3.68891 2.0356 -10.8736 -2.26714 3.24447 1.59028e-015 -3.18055e-015 -0 -146.026 -53.5085 -68.3933 9.23936 9.68271 0.746962 0.368473 9.90896 -0.00117925 0.86662 0.361025 0.414644 126.791 -55.4495 65.7587 -5.32134 8.51315 -2.33386 -0.369625 9.91382 0.00119887 5.23327 -24.4345 -4.24573 -5.58166 61.8288 15.8249 -0.310225 -8.21944 0.0212433 3.29055 -5.41041 -1.29791 
117.567 98.1196 -20.2193 3.62496 2.24767 -172.746 10.3926 -6.24772 11.0887 5.40518 22.6722 -22.4293 8.86329 -15.8688 0.625592 1.66945 1.2238 -0.954413 6.66464 3.64181 3.9727 11.4446 4.26061 2.25651 -11.3005 -2.17711 3.47017 -7.95139e-016 -1.59028e-015 1.59028e-015 -144.05 -54.2847 -66.5411 7.73378 10.1107 1.36191 0.368473 9.90896 -0.00117925 -1.02024 0.30413 0.553572 129.018 -54.0736 66.574 -6.02934 8.34087 -2.04329 -0.369625 9.91382 0.00119887 4.49293 -25.3558 -4.64478 -5.52656 57.9056 17.3798 -0.517236 -9.35398 0.00284684 3.05264 -5.70711 -1.04792 
117.564 98.211 -21.9529 3.17513 2.1902 -173.272 10.1753 -4.81365 10.7314 4.91568 22.2355 -21.6327 8.47702 -15.4238 0.556158 1.45988 -0.680712 -1.01473 6.55669 3.40919 4.23832 11.1787 4.71679 2.42181 -11.6986 -2.01014 3.7031 3.18055e-015 -1.59028e-015 -3.18055e-015 -142.276 -55.1358 -64.8239 6.44987 10.4398 1.88516 0.368473 9.90896 -0.00117925 -2.5877 0.261262 0.723501 130.811 -52.8085 67.3014 -6.67271 8.17556 -1.77881 -0.369625 9.91382 0.00119887 3.66558 -25.9963 -5.35481 -5.284 53.3687 18.9007 -0.965711 -9.89175 -0.0159883 2.52793 -5.97229 -0.611239 
117.543 98.357 -23.6741 2.7028 2.19192 -173.67 9.776 -3.20819 10.3399 4.58364 21.4824 -20.8534 8.66733 -15.8034 0.615508 1.53413 -0.793149 -1.11413 6.38996 3.15844 4.48201 10.8078 5.27579 2.58592 -12.0014 -1.95713 3.70168 -7.95139e-016 0 -0 -140.748 -55.7947 -63.3319 5.44204 10.6683 2.29482 0.368473 9.90896 -0.00117925 -3.52693 0.227777 0.72229 131.416 -51.4632 67.5112 -6.8681 8.12694 -1.69842 -0.369625 9.91382 0.00119887 2.83799 -26.2672 -6.44182 -5.38803 48.2537 20.1474 -0.983331 -9.41007 -0.0103424 0.69383 -6.70775 0.866224 
117.498 98.4834 -25.3909 2.24749 2.1839 -173.995 9.32873 -1.5919 10.0213 4.36311 20.6292 -20.2552 8.92291 -16.3437 0.693437 1.59785 -0.591675 -1.15384 6.22046 2.91106 4.66745 10.429 5.74234 2.70788 -12.2955 -1.85645 3.70707 -2.78299e-015 0 4.77083e-015 -139.527 -56.505 -62.0671 4.69376 10.8194 2.59856 0.368473 9.90896 -0.00117925 -4.17955 0.204913 0.777272 131.634 -50.248 67.6202 -6.94256 8.10723 -1.66777 -0.369625 9.91382 0.00119887 2.00022 -26.287 -7.42999 -4.93696 42.821 20.5607 -0.969862 -8.5184 -0.00033931 -0.859528 -7.16032 2.10137 
117.421 98.5128 -27.1093 1.8438 2.09622 -174.293 8.9023 -0.115113 9.87887 4.24808 19.8501 -20.055 8.75403 -16.6389 0.701494 1.33889 -1.14238 -0.955865 6.11086 2.68565 4.75258 10.1246 5.93946 2.74505 -12.6589 -1.56879 3.93716 -2.38542e-015 -1.59028e-015 1.59028e-015 -138.579 -57.4743 -60.9559 4.16665 10.9219 2.81223 0.368473 9.90896 -0.00117925 -4.84622 0.193257 1.1235 132.089 -49.3415 67.8775 -7.14366 8.05257 -1.58497 -0.369625 9.91382 0.00119887 1.13468 -26.1697 -7.78134 -3.45623 37.2634 19.5346 -1.14385 -7.75066 -0.000857785 -0.449739 -6.51334 1.66248 
117.324 98.4932 -28.8257 1.518 1.97726 -174.566 8.52924 1.28734 9.88866 4.21162 19.1064 -20.0429 8.50312 -16.8349 0.691927 1.05396 -1.92025 -0.760549 6.03997 2.45123 4.80514 9.8761 6.03106 2.75549 -13.0596 -1.21858 4.22026 -2.78299e-015 1.59028e-015 -1.59028e-015 -138.153 -58.5395 -60.2492 3.9729 10.9572 2.8907 0.368473 9.90896 -0.00117925 -5.34001 0.1901 1.53566 132.408 -48.6261 68.1518 -7.32239 8.00023 -1.51132 -0.369625 9.91382 0.00119887 0.342344 -25.8845 -7.75613 -1.70626 31.5254 17.8175 -1.37579 -6.91078 -0.00256787 0.413308 -5.49096 0.824682 
